<svg xmlns="http://www.w3.org/2000/svg" xmlns:xlink="http://www.w3.org/1999/xlink" viewBox="0 0 354.55 357.18">
  <defs>
    <style>
      .cls-1 {
        fill: #f2b851;
      }

      .cls-2 {
        fill: green;
      }

      .cls-3 {
        opacity: 0.5;
      }

      .cls-4 {
        fill: #5e4833;
      }

      .cls-5, .cls-7 {
        fill: none;
      }

      .cls-5, .cls-6, .cls-7 {
        stroke: #231f20;
        stroke-miterlimit: 10;
      }

      .cls-5 {
        stroke-width: 3px;
      }

      .cls-6 {
        fill: #fff;
        stroke-width: 4px;
      }

      .cls-7 {
        stroke-width: 5px;
      }
    </style>
  </defs>
  <title>hangman</title>
  <g id="background_default">
    <g id="sun">
      <polygon class="cls-1" points="250.09 54.03 236.24 61.07 250.09 68.11 250.09 54.03"/>
      <polygon class="cls-1" points="304.45 54.03 304.45 68.11 318.31 61.07 304.45 54.03"/>
      <polygon class="cls-1" points="257.78 39.19 242.38 37.12 249.78 50.79 257.78 39.19"/>
      <polygon class="cls-1" points="312.17 37.12 296.76 39.19 304.76 50.79 312.17 37.12"/>
      <polygon class="cls-1" points="291.51 22.32 279.77 32.52 292.82 37.81 291.51 22.32"/>
      <polygon class="cls-1" points="263.04 22.32 261.72 37.81 274.77 32.52 263.04 22.32"/>
      <polygon class="cls-1" points="242.38 85.47 257.78 83.41 249.78 71.81 242.38 85.47"/>
      <polygon class="cls-1" points="312.17 85.47 304.76 71.81 296.76 83.41 312.17 85.47"/>
      <polygon class="cls-1" points="292.82 84.78 279.77 90.08 291.51 100.27 292.82 84.78"/>
      <polygon class="cls-1" points="274.77 90.08 261.72 84.78 263.04 100.27 274.77 90.08"/>
      <circle id="sun_circle" class="cls-1" cx="277.03" cy="61.3" r="23.48"/>
    </g>
    <g id="grass">
      <path class="cls-2" d="M538.25,424.44s-6.75-22.25-20-25.25-14,0-14,0,3.25-4.5,17-2.75,17,16.75,17,16.75,3.5-1.5,0-23.25-22.5-30.75-22.5-30.75,22.5,8.75,25.5,31.5,2.24,18,2.24,18,1.76-13.25,19.51-20c0,0,8.75-3,14.25-1.25,0,0-16.5,1.25-25,13.75s-8.76,23.25-8.76,23.25Z" transform="translate(-339.39 -69.38)"/>
      <path class="cls-2" d="M496.49,424.44s-6.75-22.25-20-25.25-14,0-14,0,3.25-4.5,17-2.75,17,16.75,17,16.75,3.5-1.5,0-23.25S474,359.19,474,359.19s22.5,8.75,25.5,31.5,2.24,18,2.24,18,1.76-13.25,19.51-20c0,0,8.75-3,14.25-1.25,0,0-16.5,1.25-25,13.75s-8.76,23.25-8.76,23.25Z" transform="translate(-339.39 -69.38)"/>
      <path class="cls-2" d="M579.75,426.56s6.75-22.25,20-25.25,14,0,14,0-3.25-4.5-17-2.75-17,16.75-17,16.75-3.5-1.5,0-23.25,22.5-30.75,22.5-30.75-22.5,8.75-25.5,31.5-2.24,18-2.24,18-1.76-13.25-19.51-20c0,0-8.75-3-14.25-1.25,0,0,16.5,1.25,25,13.75s8.76,23.25,8.76,23.25Z" transform="translate(-339.39 -69.38)"/>
      <path class="cls-2" d="M465.91,424.44s6.75-22.25,20-25.25,14,0,14,0-3.25-4.5-17-2.75-17,16.75-17,16.75-3.5-1.5,0-23.25,22.5-30.75,22.5-30.75-22.5,8.75-25.5,31.5-2.24,18-2.24,18-1.76-13.25-19.51-20c0,0-8.75-3-14.25-1.25,0,0,16.5,1.25,25,13.75s8.76,23.25,8.76,23.25Z" transform="translate(-339.39 -69.38)"/>
    </g>
  </g>
  <g id="background_win">
    <image id="rainbow" class="cls-3" width="1600" height="800" transform="translate(0 177.62) scale(0.22)" xlink:href="1600px-Rainbow-diagram-ROYGBIV.svg.png"/>
  </g>
  <g id="hanger">
    <rect class="cls-4" x="0.55" y="325.62" width="103.64" height="29.52"/>
    <rect class="cls-4" x="43.61" y="12.62" width="17.82" height="321.67"/>
    <rect class="cls-4" x="43.61" width="136.67" height="12.62"/>
  </g>
  <g id="string">
    <line class="cls-5" x1="176.94" y1="12.62" x2="177.49" y2="81.62"/>
  </g>
  <g id="man">
    <circle id="head" class="cls-6" cx="177.49" cy="113.5" r="31.88"/>
    <line id="body" class="cls-7" x1="177.49" y1="145.42" x2="177.49" y2="239.62"/>
    <line id="right_leg" class="cls-7" x1="205.86" y1="308.14" x2="177.49" y2="235.68"/>
    <line id="left_leg" class="cls-7" x1="149.49" y1="308.14" x2="177.86" y2="235.68"/>
    <line id="right_arm" class="cls-7" x1="177.49" y1="155.29" x2="217.61" y2="213.95"/>
    <line id="right_arm-2" data-name="right_arm" class="cls-7" x1="177.61" y1="155.29" x2="137.49" y2="213.95"/>
    <g id="man_default">
      <circle id="eye_left" class="cls-5" cx="166.94" cy="105.95" r="5.67"/>
      <circle id="eye_right" class="cls-5" cx="185.94" cy="105.95" r="5.67"/>
      <path id="frown" class="cls-5" d="M504.33,195.33s14,9.33,24,0" transform="translate(-339.39 -69.38)"/>
    </g>
  </g>
</svg>
